<?xml version="1.0" encoding="utf-8"?>
<!-- Generator: Adobe Illustrator 27.5.0, SVG Export Plug-In . SVG Version: 6.00 Build 0)  -->
<svg version="1.1" id="BACKGROUND" xmlns="http://www.w3.org/2000/svg" xmlns:xlink="http://www.w3.org/1999/xlink" x="0px" y="0px"
	 viewBox="0 0 750 500" style="enable-background:new 0 0 750 500;" xml:space="preserve">
<g>
	<defs>
		<rect id="SVGID_1_" width="750" height="500"/>
	</defs>
	<clipPath id="SVGID_00000170255400858113310980000002505470867749135497_">
		<use xlink:href="#SVGID_1_"  style="overflow:visible;"/>
	</clipPath>
	
		<linearGradient id="SVGID_00000088820100207701683330000007110244278039380386_" gradientUnits="userSpaceOnUse" x1="375" y1="43.101" x2="375" y2="641.761">
		<stop  offset="0" style="stop-color:#D8C7FF"/>
		<stop  offset="1" style="stop-color:#8871B5"/>
	</linearGradient>
	
		<rect style="clip-path:url(#SVGID_00000170255400858113310980000002505470867749135497_);fill:url(#SVGID_00000088820100207701683330000007110244278039380386_);" width="750" height="500"/>
	<g style="opacity:0.23;clip-path:url(#SVGID_00000170255400858113310980000002505470867749135497_);">
		
			<linearGradient id="SVGID_00000036966440851131291500000018157284064252635556_" gradientUnits="userSpaceOnUse" x1="194.9218" y1="26.448" x2="617.2675" y2="26.448">
			<stop  offset="0" style="stop-color:#D8C7FF"/>
			<stop  offset="1" style="stop-color:#8871B5"/>
		</linearGradient>
		<path style="fill:url(#SVGID_00000036966440851131291500000018157284064252635556_);" d="M578.17-15.575
			c-11.391,4.14-18.062,15.138-27.708,19.409c-15.82,7.004-41.776,4.312-58.687,5.517c-31.084,2.214-61.974,2.253-93.118,2.253
			c-29.752,0-59.396-1.337-89.104-1.529c-17.616-0.114-38.291-2.081-54.156,5.952c9.492,9.381,27.644,7.023,39.875,11.666
			c-20.898,7.882-48.036,6.25-70.204,8.84c-17.774,2.077-55.365-7.982-67.561,7.734c4.581,1.27,7.416,5.82,10.874,7.756
			c-8.074,15.429-60.718,8.581-74.242,9.002c-22.852,0.712-45.593,3.557-68.391,5.214c-8.413,0.611-24.136-1.524-30.138,3.529
			c34.186,8.664,76.82-0.51,111.271-2.696c41.874-2.657,83.501,0.227,125.399,0.059c29.537-0.119,69.097,2.896,97.556-6.91
			c9.863-3.398,16.195-7.584,6.441-16.707c10.2-13.973,44.59-12.698,59.055-13.848c36.723-2.919,73.627-0.95,110.406-1.693
			c39.3-0.794,78.518-2.637,117.791-4.041c15.834-0.566,34.242,1.459,48.591-6.221C657.74-0.385,625.916,6.203,606.635-1.75
			c9.933-10.701,28.101-15.08,46.389-16.878C628.895-19.556,600.631-23.739,578.17-15.575z"/>
		
			<linearGradient id="SVGID_00000016762392335787031480000014868545232437581191_" gradientUnits="userSpaceOnUse" x1="837.603" y1="-12.0835" x2="848.8171" y2="-12.0835">
			<stop  offset="0" style="stop-color:#D8C7FF"/>
			<stop  offset="1" style="stop-color:#8871B5"/>
		</linearGradient>
		<path style="fill:url(#SVGID_00000016762392335787031480000014868545232437581191_);" d="M850.274-12.068
			c-5.973-0.419-11.964-0.8-17.963-1.162C838.164-10.903,844.449-10.057,850.274-12.068z"/>
		
			<linearGradient id="SVGID_00000132784359370037436650000000278629168439828916_" gradientUnits="userSpaceOnUse" x1="705.845" y1="-17.313" x2="817.7734" y2="-17.313">
			<stop  offset="0" style="stop-color:#D8C7FF"/>
			<stop  offset="1" style="stop-color:#8871B5"/>
		</linearGradient>
		<path style="fill:url(#SVGID_00000132784359370037436650000000278629168439828916_);" d="M832.311-13.23
			c-4.893-1.946-9.485-4.923-13.243-8.166l-127.494,1.5c-10.498,0.026-24.559-0.107-38.55,1.268
			c1.918,0.074,3.814,0.129,5.675,0.154C716.209-17.708,774.807-16.704,832.311-13.23z"/>
	</g>
	
		<linearGradient id="SVGID_00000101825361814599851340000006961421725544835515_" gradientUnits="userSpaceOnUse" x1="192.0999" y1="237.3415" x2="754.5717" y2="237.3415">
		<stop  offset="0" style="stop-color:#D8C7FF"/>
		<stop  offset="1" style="stop-color:#8871B5"/>
	</linearGradient>
	
		<path style="opacity:0.23;clip-path:url(#SVGID_00000170255400858113310980000002505470867749135497_);fill:url(#SVGID_00000101825361814599851340000006961421725544835515_);" d="
		M-46.389,193.093c24.711-1.921,52.005,3.86,76.966,4.833c9.29,0.362,63.5-4.387,47.292,17.391
		c17.024,12.846,64.073,2.251,83.47,1.363c54.644-2.499,110.322-2.832,165-0.862c47.995,1.729,95.821,7.713,143.854,8.88
		c14.476,0.352,50.865,5.23,61.81-6.072c-16.205-11.047-40.108-7.036-57.792-15.475c30.283-6.796,69.317,0.561,100.061,3.774
		c29.841,3.119,67.701,0.437,96.021,10.166c-20.279,10.571-51.972,2.296-74.719,10.945c75.083,13.028,158.934-3.943,232.051,22.042
		c-13.322,11.016-44.308,3.705-59.606,3.023c-40.186-1.792-80.392-3.096-120.578-4.883c-25.986-1.155-52.277-1.249-77.953-5.589
		c-12.291-2.077-25.229-6.029-37.778-6.105c-25.233-0.153-51.398,8.278-76.918,10.194c-22.023,1.653-43.965,2.535-66.008,3.333
		c-11.667,0.423-36.819-1.183-45.468,6.037c24.494,12.471,65.849,5.246,93.085,7.465c28.928,2.357,61.059,1.819,88.836,10.863
		c-10.149,10.103-39.128,7.141-53.545,7.198c-32.971,0.13-66.384-2.362-99.284-4.524c-35.653-2.343-71.079,1.74-106.582,0.139
		c-8.906-0.402-24.257-0.128-17.982-12.179c-26.12-15.312-69.497-11.415-98.945-15.301c-42.245-5.574-88.552-13.774-130.302-1.199
		c9.289,5.446,19.671,8.005,7.669,17.227c-15.384,11.822-56.917,1.999-74.674,1.144c-22.996-1.107-27.953,2.621-23.398-19.779
		C-69.137,234.029-71.783,209.294-46.389,193.093z"/>
	
		<linearGradient id="SVGID_00000109021573850253870590000003490848783390096799_" gradientUnits="userSpaceOnUse" x1="457.8315" y1="56.2592" x2="457.8315" y2="181.1137">
		<stop  offset="0" style="stop-color:#D8C7FF"/>
		<stop  offset="1" style="stop-color:#8871B5"/>
	</linearGradient>
	
		<path style="opacity:0.23;clip-path:url(#SVGID_00000170255400858113310980000002505470867749135497_);fill:url(#SVGID_00000109021573850253870590000003490848783390096799_);" d="
		M763.571,47.601c-26.133,0-56.593-2.734-80.77,7.529c8.32,3.004,20.253,0.027,27.102,7.548c-6.908,6.411-21.129,5.931-30.543,7.049
		c-33.139,3.933-66.816,4.982-100.149,4.873c-51.412-0.168-100.818,6.774-151.486,13.868c16.52,3.957,34.821,7.586,51.856,10.209
		c15.084,2.322,33.791,1.362,46.637,10.457c-15.349,6.854-39.81,2.961-56.68,2.965c-37.742,0.008-75.062,1.455-112.746,3.371
		c-42.841,2.178-85.877,3.721-128.582,7.769c-27.905,2.645-76.349,4.258-99.135,22.251c7.369,8.056,24.68,4.133,34.884,4.102
		c22.738-0.069,45.34-0.378,68.054-1.161c42.486-1.464,84.929,0.399,127.376,1.166c48.582,0.878,97.083,1.5,145.7,1.5
		c21.909,0,43.819,0.044,65.728,0.012c9.816-0.014,22.519,2.8,29.375-5.611c-6.3-11.241-22.524-9.846-29.926-20.268
		c14.319-16.189,105.083-4.547,103.503-21.938c26.863,4.506,57.834,1.033,84.04,10.719c-25.317,10.959-57.163,5.006-82.419,17.361
		c30.023,1.426,62.228,1.287,92.075-3.072c23.651-3.454,18.167-9.173,18.55-29.063C786.488,74.746,791.088,53.486,763.571,47.601z"
		/>
	
		<linearGradient id="SVGID_00000157282992247218854390000013177064672999208834_" gradientUnits="userSpaceOnUse" x1="687.6382" y1="260.3982" x2="687.6382" y2="122.0146" gradientTransform="matrix(0.9987 0.0518 -0.0406 0.7814 11.3288 25.2649)">
		<stop  offset="0" style="stop-color:#D8C7FF"/>
		<stop  offset="1" style="stop-color:#FFFFFF"/>
	</linearGradient>
	
		<path style="clip-path:url(#SVGID_00000170255400858113310980000002505470867749135497_);fill:url(#SVGID_00000157282992247218854390000013177064672999208834_);" d="
		M815.84,224.344c-11.859-2.603-23.881-4.709-35.996-6.305c0.225-0.779,0.449-1.558,0.674-2.336
		c-3.395,0.733-6.791,1.466-10.186,2.2c8.393-5.273,15.033-12.226,19.143-20.047c1.386-2.637,2.503-5.48,2.041-8.344
		c-0.462-2.864-2.865-5.74-6.436-6.491c-3.557-0.748-7.151,0.707-10.168,2.271c-6.878,3.566-13.022,7.978-18.172,13.02
		c0.07-0.191,0.134-0.384,0.182-0.581c0.602-2.463-1.497-5.535-4.713-5.569c-1.959-0.021-3.602,1.029-5.061,2.024
		c-4.183,2.852-8.366,5.705-12.549,8.558c1.359-1.982,1.626-4.421,0.722-6.6c-2.646,0.27-5.067,1.533-6.385,3.332
		c5.525-8.279,10.011-16.998,13.376-25.996c0.996-2.665,1.828-5.734-0.113-8.12c-2.775-3.411-9.179-3.176-14.005-1.973
		c-13.612,3.394-25.149,11.293-31.279,21.369c1.049-2.065-1.187-4.767-4.102-5.248c-7.625-1.26-7.974,7.706-13.107,5.663
		c-4.134-1.645-8.381-11.544-12.328-14.6c-6.264-4.852-15.576-7.91-23.82-5.907c-9.473,2.303-14.688,10.621-14.621,18.45
		c0.067,7.829,4.26,15.311,8.376,22.527c-1.205-1.541-3.99-2.184-6.004-1.385c-2.014,0.799-2.949,2.916-2.017,4.566
		c-6.345-6.696-13.04-13.629-22.483-17.443c-9.443-3.813-22.47-3.402-28.613,3.159c-6.115,6.531-3.192,15.793,0.107,23.64
		c-0.763-2.534-6.023-2.757-7.742-0.581c-1.72,2.175-0.339,5.242,2.185,6.962c2.524,1.721,5.874,2.426,9.092,3.079
		c-6.266,0.694-12.532,1.388-18.798,2.082c66.092,0.951,132.184,1.902,198.276,2.853c-5.872-2.501-11.743-5.001-17.615-7.502
		C767.748,224.828,791.794,224.586,815.84,224.344z"/>
	
		<linearGradient id="SVGID_00000042012187250964609420000004279920155328983728_" gradientUnits="userSpaceOnUse" x1="310.6278" y1="37.7707" x2="310.6278" y2="-100.613" gradientTransform="matrix(0.9987 0.0518 -0.0406 0.7814 11.3288 25.2649)">
		<stop  offset="0" style="stop-color:#D8C7FF"/>
		<stop  offset="1" style="stop-color:#FFFFFF"/>
	</linearGradient>
	
		<path style="clip-path:url(#SVGID_00000170255400858113310980000002505470867749135497_);fill:url(#SVGID_00000042012187250964609420000004279920155328983728_);" d="
		M448.359,30.854c-11.859-2.603-23.881-4.709-35.996-6.305c0.225-0.779,0.449-1.558,0.674-2.336
		c-3.395,0.733-6.791,1.466-10.186,2.2c8.393-5.272,15.033-12.226,19.143-20.047c1.386-2.637,2.503-5.48,2.041-8.344
		c-0.462-2.864-2.865-5.74-6.436-6.491c-3.558-0.748-7.151,0.707-10.168,2.271c-6.878,3.566-13.022,7.978-18.172,13.02
		c0.07-0.191,0.134-0.384,0.182-0.581c0.602-2.463-1.497-5.535-4.714-5.569c-1.959-0.021-3.602,1.029-5.061,2.024
		c-4.183,2.852-8.366,5.705-12.549,8.558c1.359-1.982,1.626-4.421,0.722-6.6c-2.646,0.27-5.067,1.533-6.385,3.332
		c5.525-8.279,10.011-16.998,13.376-25.996c0.996-2.664,1.828-5.734-0.113-8.12c-2.775-3.411-9.179-3.176-14.004-1.973
		c-13.612,3.394-25.149,11.293-31.279,21.369c1.049-2.065-1.187-4.767-4.102-5.248c-7.626-1.26-7.974,7.706-13.107,5.663
		c-4.134-1.645-8.381-11.544-12.328-14.6c-6.264-4.852-15.576-7.91-23.82-5.907c-9.473,2.302-14.688,10.621-14.621,18.45
		c0.067,7.829,4.26,15.311,8.376,22.527c-1.205-1.541-3.99-2.184-6.004-1.385c-2.014,0.799-2.949,2.917-2.017,4.566
		c-6.345-6.696-13.04-13.629-22.483-17.443c-9.443-3.814-22.47-3.403-28.613,3.159c-6.115,6.531-3.192,15.793,0.107,23.64
		c-0.763-2.534-6.023-2.757-7.743-0.581c-1.72,2.176-0.339,5.242,2.185,6.962c2.524,1.721,5.874,2.426,9.092,3.079
		c-6.266,0.694-12.532,1.388-18.798,2.082c66.092,0.951,132.184,1.902,198.276,2.853c-5.872-2.501-11.743-5.001-17.615-7.502
		C400.266,31.338,424.313,31.096,448.359,30.854z"/>
	
		<linearGradient id="SVGID_00000031170300153333692720000003753454368967139993_" gradientUnits="userSpaceOnUse" x1="600.3627" y1="90.4064" x2="600.3627" y2="42.9987">
		<stop  offset="0" style="stop-color:#D8C7FF"/>
		<stop  offset="1" style="stop-color:#FFFFFF"/>
	</linearGradient>
	
		<path style="clip-path:url(#SVGID_00000170255400858113310980000002505470867749135497_);fill:url(#SVGID_00000031170300153333692720000003753454368967139993_);" d="
		M591.84,56.66c-2.983-2.644-6.149-2.903-6.087,1.466c-1.407-3.374-4.086-6.512-7.698-9.142
		c-7.284-5.304-20.091-17.905-32.101-15.622c-15.843,3.012-1.927,24.599,1.488,31.433c-1.372-1.076-4.866-3.192-7.472-3.374
		c-0.677,1.392,0.115,2.839,0.054,4.341c-1.687-2.802-5.634-9.093-10.518-5.274c-4.603,3.6,2.999,10.005,4.658,13.719
		c-3.734,1.434-9.334,2.457-12.458,4.461c7.241,1.465,16.507,0.623,24.046,0.614c18.199-0.022,36.658,0.542,54.83,1.316
		c16.968,0.724,33.899,0.16,50.883,0.551c9.137,0.211,18.539-1.01,27.555-0.596c-3.513-1.096-11.852-1.224-13.371-3.803
		c2.937-1.337,10.391-6.064,9.539-8.835c-1.202-3.906-7.035-0.958-10.431-0.373c0.892-1.579,3.022-3.157,4.397-4.726
		c3.479-3.972,5.465-8.455,6.656-13.07c2.133-8.264-0.76-17.302-14.108-18.509c-11.163-1.01-24.956,3.696-33.215,8.833
		c-6.566,4.084-11.142,8.561-16.478,13.112c-0.444-3.773-0.858-14.357-9.926-8.753C597.421,47.313,596.295,52.503,591.84,56.66z"/>
	
		<linearGradient id="SVGID_00000021083312661006699870000008858661283395260067_" gradientUnits="userSpaceOnUse" x1="66.4001" y1="188.2534" x2="66.4001" y2="65.1773">
		<stop  offset="0" style="stop-color:#D8C7FF"/>
		<stop  offset="1" style="stop-color:#FFFFFF"/>
	</linearGradient>
	
		<path style="clip-path:url(#SVGID_00000170255400858113310980000002505470867749135497_);fill:url(#SVGID_00000021083312661006699870000008858661283395260067_);" d="
		M228.48,163.753c2.548-0.999,6.035-4.438,5.559-7.089c-0.628-3.495-3.532-2.632-7.206-2.374
		c8.485-5.423,13.249-18.527,7.236-26.345c-10.118-13.153-25.513,1.097-35.952,4.927c1.613-4.618,13.694-20.538-2.467-16.155
		c-13.003,3.527-19.64,14.245-28.686,21.589c3.111-6.634,1.494-10.521-6.076-4.868c4.785-8.706,13.992-14.689,16.332-24.61
		c2.363-10.023,7.711-35.466-4.433-42.63c-8.147-4.806-22.553-0.227-30.406,2.493c-13.205,4.573-25.799,12.65-35.648,21.194
		c-13.595,11.793-25.637,26.693-34.358,41.276c0.973-1.942,2.519-9.552-0.682-10.82c-5.438-2.155-10.135,7.368-12.087,9.774
		c2.104-4.514,3.298-12.838-1.269-16.66c-4.499-3.764-7.867-1.087-8.269,2.791c-0.841-6.309-5.068-11.873-8.499-17.486
		C33.611,85.743,21.387,73.13,2.119,72.198c-47.326-2.29-24.249,48.759-21.408,69.308c-2.902-3.81-5.808-8.481-11.789-9.282
		c-5.725-0.767-8.634,1.78-8.353,5.39c-4.187-9.241-19.662-25.248-28.574-17.104c-5.249,4.797-0.964,13.626,1.111,18.811
		c1.225,3.06,6.601,10.254,5.026,13.112c-2.609-1.259-9.054-5.734-12.177-3.071c-3.819,3.256,5.017,8.116,3.849,11.519
		c-1.064,3.101-8.524,2.822-12.14,3.2c-8.029,0.84-15.786,1.819-23.463,3.992c13.263,0.718,26.477-1.195,39.711-1.869
		c6.91-0.352,13.837-0.42,20.758-0.335c6.459,0.079,13.117,0.86,19.489,0.652c7.158-0.233,14.399,0.263,21.58,0.223
		c8.549-0.048,17.097-0.125,25.645-0.205c17.099-0.161,34.199-0.336,51.3-0.319c7.515,0.007,15.03,0.052,22.544,0.151
		c31.78,0.42,63.582,1.3,95.371,0.83c11.801-0.175,23.598-0.736,35.395-0.887c3.965-0.051,8.888,0.544,12.601-0.328
		C235.224,165.701,231.635,164.776,228.48,163.753z"/>
	
		<linearGradient id="SVGID_00000047042589086691604630000001635974454883827118_" gradientUnits="userSpaceOnUse" x1="37.9001" y1="298.2935" x2="37.9001" y2="208.8755">
		<stop  offset="0" style="stop-color:#D8C7FF"/>
		<stop  offset="1" style="stop-color:#FFFFFF"/>
	</linearGradient>
	
		<path style="clip-path:url(#SVGID_00000170255400858113310980000002505470867749135497_);fill:url(#SVGID_00000047042589086691604630000001635974454883827118_);" d="
		M120.824,280.493c1.303-0.726,3.088-3.224,2.844-5.15c-0.321-2.539-1.807-1.912-3.687-1.725c4.341-3.94,6.779-13.46,3.702-19.14
		c-5.177-9.556-13.053,0.797-18.394,3.58c0.825-3.355,7.006-14.922-1.262-11.737c-6.653,2.562-10.048,10.35-14.676,15.685
		c1.592-4.82,0.764-7.644-3.109-3.537c2.448-6.325,7.159-10.672,8.356-17.88c1.209-7.282,3.945-25.767-2.268-30.972
		c-4.168-3.491-11.539-0.165-15.556,1.811c-6.756,3.323-13.2,9.191-18.238,15.398c-6.956,8.568-13.116,19.393-17.578,29.988
		c0.498-1.411,1.289-6.94-0.349-7.861c-2.782-1.566-5.185,5.353-6.184,7.101c1.076-3.279,1.687-9.327-0.649-12.104
		c-2.302-2.735-4.025-0.79-4.231,2.028c-0.43-4.584-2.593-8.626-4.348-12.704c-4.07-9.458-10.325-18.622-20.183-19.299
		C-19.201,212.312-7.394,249.4-5.94,264.33c-1.485-2.768-2.971-6.161-6.031-6.744c-2.929-0.557-4.417,1.294-4.273,3.916
		c-2.142-6.714-10.059-18.343-14.619-12.426c-2.686,3.485-0.493,9.899,0.569,13.667c0.626,2.223,3.377,7.45,2.571,9.526
		c-1.335-0.915-4.632-4.166-6.23-2.231c-1.954,2.366,2.567,5.896,1.969,8.369c-0.544,2.253-4.361,2.05-6.211,2.325
		c-4.108,0.61-8.077,1.322-12.004,2.901c6.786,0.521,13.546-0.868,20.317-1.358c3.535-0.256,7.079-0.305,10.62-0.243
		c3.304,0.058,6.711,0.625,9.971,0.473c3.662-0.17,7.367,0.191,11.041,0.162c4.374-0.035,8.747-0.091,13.121-0.149
		c8.748-0.117,17.497-0.244,26.246-0.232c3.845,0.005,7.69,0.038,11.534,0.11c16.259,0.305,32.53,0.944,48.794,0.603
		c6.037-0.127,12.073-0.534,18.109-0.645c2.028-0.037,4.547,0.395,6.447-0.238C124.274,281.909,122.438,281.237,120.824,280.493z"/>
	
		<linearGradient id="SVGID_00000060727536737096210690000010288963708074707862_" gradientUnits="userSpaceOnUse" x1="400.4751" y1="184.0181" x2="400.4751" y2="57.0299">
		<stop  offset="0" style="stop-color:#D8C7FF"/>
		<stop  offset="1" style="stop-color:#FFFFFF"/>
	</linearGradient>
	
		<path style="clip-path:url(#SVGID_00000170255400858113310980000002505470867749135497_);fill:url(#SVGID_00000060727536737096210690000010288963708074707862_);" d="
		M364.081,171.021c0.387-0.083,0.774-0.15,1.16-0.194c10.14-1.156,21.782,0.835,32.096,1.1c11.37,0.292,26.465-1.49,37.33,1.133
		c-1.082-0.395-1.774-1.225-2.438-1.613c9.28-0.551,20.279-19.02,8.847-15.836c6.416-7.415,14.16-28.49,0.542-33.555
		c-16.986-6.317-35.395,20.258-41.475,30.899c-1.014-4.756-6.971-11.163-10.502-3.639c-1.298-7.94-10.623-17.936-20.22-14.673
		c-12.591,4.281-3.905,17.607-1.349,25.109c-1.872-1.13-6.431-2.118-7.942,0.2c-1.332,2.043,1.684,4.626,2.625,6.428
		c-0.949-1.818-10.154,3.606-10.963,4.449C355.433,174.924,359.754,171.952,364.081,171.021z"/>
	<g style="clip-path:url(#SVGID_00000170255400858113310980000002505470867749135497_);">
		<circle style="opacity:0.36;fill:#FFFFFF;" cx="272.01" cy="283.999" r="132.904"/>
		<circle style="opacity:0.8;fill:#FFFFFF;" cx="272.01" cy="283.999" r="106.986"/>
	</g>
	
		<linearGradient id="SVGID_00000169525698084724385720000009715316577138933131_" gradientUnits="userSpaceOnUse" x1="669.9999" y1="336.3297" x2="295.295" y2="336.3297">
		<stop  offset="0" style="stop-color:#D8C7FF"/>
		<stop  offset="1" style="stop-color:#8871B5"/>
	</linearGradient>
	
		<polygon style="clip-path:url(#SVGID_00000170255400858113310980000002505470867749135497_);fill:url(#SVGID_00000169525698084724385720000009715316577138933131_);" points="
		782.365,401.492 779.604,381.614 772.701,380.609 772.356,352.132 769.249,352.132 770.285,360.619 767.869,360.284 
		765.453,342.081 759.24,342.081 754.408,334.041 749.576,333.817 746.815,328.68 733.699,329.685 731.629,333.036 731.629,335.828 
		727.487,337.391 727.142,340.183 720.239,340.183 715.062,338.284 712.646,338.396 711.955,336.609 702.291,336.609 
		702.291,349.117 701.601,351.797 695.043,360.172 695.316,363.789 693.701,363.356 693.356,310.881 690.249,310.881 
		691.285,326.521 688.869,325.903 686.453,292.361 680.24,292.361 675.408,277.544 670.576,277.133 667.815,267.667 
		654.699,269.519 652.629,275.692 652.629,280.837 648.487,283.718 648.142,288.862 641.239,288.862 636.062,285.364 
		633.646,285.57 632.955,282.277 623.291,282.277 623.291,305.325 622.601,310.264 616.043,325.698 616.388,334.135 
		611.902,336.193 613.282,343.189 609.486,344.835 607.76,331.46 601.547,333.929 600.512,341.954 593.954,347.099 590.848,355.33 
		588.777,356.565 589.089,363.198 587.243,369.325 582.34,368.415 584.123,364.547 578.328,363.41 578.774,358.746 570.305,350.216 
		569.414,347.486 569.414,334.747 556.933,334.747 556.042,336.567 552.922,336.453 546.236,338.387 537.321,338.387 
		536.875,335.543 531.527,333.951 531.527,331.107 528.852,327.695 519.909,327.154 519.909,316.512 507.428,316.512 
		506.537,318.875 503.417,318.727 496.731,321.238 487.816,321.238 487.37,317.546 482.022,315.478 482.022,311.785 
		479.347,307.353 462.409,306.024 458.844,312.819 452.603,313.114 446.363,323.75 438.34,323.75 435.22,347.827 432.1,348.271 
		433.437,337.044 429.425,337.044 428.98,374.712 420.065,376.041 416.499,402.335 566.803,404.265 566.803,404.993 587.05,404.525 
		592.86,404.6 592.86,404.391 645.803,403.167 645.803,403.204 	"/>
	
		<linearGradient id="SVGID_00000134937085781835666200000001793422549183030961_" gradientUnits="userSpaceOnUse" x1="-20.0001" y1="334.0392" x2="588.0513" y2="334.0392">
		<stop  offset="0" style="stop-color:#D8C7FF"/>
		<stop  offset="1" style="stop-color:#8871B5"/>
	</linearGradient>
	
		<path style="clip-path:url(#SVGID_00000170255400858113310980000002505470867749135497_);fill:url(#SVGID_00000134937085781835666200000001793422549183030961_);" d="
		M-29.325,305.7L-18,303.701l3.997-7.328l5.663-4.33c0,0,6.995-2.998,6.995-3.997s0.666-5.663,0.666-5.663s2.665-3.997,5.996-0.999
		c3.331,2.998,3.331,2.998,3.331,2.998l7.994-4.997l2.332-8.994l8.661-3.997l5.33-4.997l2.332-5.33l6.662-3.664
		c0,0,2.998-0.666,4.663,0.666s10.326-1.332,10.326-1.332l5.33-3.997l1.333-6.329l6.329-4.996l9.327-2.998h9.993l5.663,0.999
		l6.329-2.665l1.332-8.994l8.328-2.665l8.994,1.333l6.995,6.995l-0.333,11.992l11.659-1.665l10.326,9.327v12.658l14.657,0.999
		l5.33-7.661l10.326,1.999l3.331,8.328l6.329-0.333l7.661,3.997l8.328,5.33l2.998,13.657l11.659-1.332l7.994,14.99h7.328
		l8.994,10.992l8.661,3.664l5.996-0.333l4.663,4.997l9.327,0.666l7.661,7.328l20.986,2.665l11.659,4.997l10.992,1.332h11.992
		l7.328,8.328l24.316,12.658l12.325-0.999l12.658,9.993l6.381,80.996l-457.66-52.961L-29.325,305.7z"/>
	
		<linearGradient id="SVGID_00000083047776875445449420000012254695489810634662_" gradientUnits="userSpaceOnUse" x1="188.7842" y1="338.231" x2="168.7841" y2="276.2309">
		<stop  offset="0" style="stop-color:#795ABF"/>
		<stop  offset="1" style="stop-color:#402575"/>
	</linearGradient>
	
		<polygon style="clip-path:url(#SVGID_00000170255400858113310980000002505470867749135497_);fill:url(#SVGID_00000083047776875445449420000012254695489810634662_);" points="
		-6.667,313.667 30,301 58.667,308.333 92,304.333 114,292.333 143.333,311.667 162.667,307.667 172.667,303.667 215.333,331 
		238,331.667 279.333,366.333 318.667,367.667 405.333,397 262.667,415.667 -5.333,349 	"/>
	
		<linearGradient id="SVGID_00000037653565740956483670000004382751921071244219_" gradientUnits="userSpaceOnUse" x1="307.0586" y1="395.5402" x2="301.0586" y2="329.5402">
		<stop  offset="0" style="stop-color:#4C328A"/>
		<stop  offset="1" style="stop-color:#1E0C40"/>
	</linearGradient>
	
		<path style="clip-path:url(#SVGID_00000170255400858113310980000002505470867749135497_);fill:url(#SVGID_00000037653565740956483670000004382751921071244219_);" d="
		M-6.5,333l36-15l33.5,6.5l26.5-6l57,18.5l29,1.5l20,11L243,374l52-1.5l24,11.5l52.5-15.5l25,1l27-22.5l99,18.5l31.5-1l73,32
		L297,427c0,0-309-40.5-310.5-40.5S-6.5,333-6.5,333z"/>
	
		<linearGradient id="SVGID_00000008132570014089095610000007523488712615402141_" gradientUnits="userSpaceOnUse" x1="526.5" y1="265.9999" x2="526.5" y2="404.0325">
		<stop  offset="0" style="stop-color:#9376D6"/>
		<stop  offset="1" style="stop-color:#54378C"/>
	</linearGradient>
	
		<polygon style="clip-path:url(#SVGID_00000170255400858113310980000002505470867749135497_);fill:url(#SVGID_00000008132570014089095610000007523488712615402141_);" points="
		220,407 299.667,391 353,384.667 401,357 444,353 476,333.5 498.5,337 510,380 540,372 588,383 639,361 651,359 659,354 671,340 
		688,310 704,295 712,272 726,254 745,275 756,276 824,340 833,474 333,455 	"/>
	
		<linearGradient id="SVGID_00000103236638611711079950000013783731016639577276_" gradientUnits="userSpaceOnUse" x1="596" y1="467" x2="596" y2="356.9819">
		<stop  offset="0" style="stop-color:#9376D6"/>
		<stop  offset="0.6073" style="stop-color:#6D50A9"/>
		<stop  offset="1" style="stop-color:#54378C"/>
	</linearGradient>
	
		<polygon style="clip-path:url(#SVGID_00000170255400858113310980000002505470867749135497_);fill:url(#SVGID_00000103236638611711079950000013783731016639577276_);" points="
		362,418 443,390 514,412 562,404 641,417 690,399 731,369 772.356,352.132 830,487 625,478 423,484 	"/>
	<g style="clip-path:url(#SVGID_00000170255400858113310980000002505470867749135497_);">
		
			<linearGradient id="SVGID_00000056390394261220748320000007027368758337245106_" gradientUnits="userSpaceOnUse" x1="284.6982" y1="303.4976" x2="284.6982" y2="400.4419">
			<stop  offset="0" style="stop-color:#4C328A"/>
			<stop  offset="1" style="stop-color:#1E0C40"/>
		</linearGradient>
		<path style="fill:url(#SVGID_00000056390394261220748320000007027368758337245106_);" d="M313.068,319.313
			c-0.05-1.795-2.844-1.802-2.794,0c0.19,6.849,0.086,13.702-0.346,20.54c-0.216,3.418-0.51,6.832-0.885,10.236
			c-0.185,1.687-0.856,7.829-3.818,6.412c0.33-2.694,0.615-5.392,0.849-8.096c0.302-3.487,0.781-7.067,0.168-10.539
			c-0.416-2.357-4.007-1.358-3.593,0.991c0.463,2.627,0.032,5.442-0.179,8.08c-0.206,2.57-0.456,5.137-0.749,7.699
			c-0.206,1.8-0.678,10.951-3.23,12.502c0.043-1.166,0.089-2.324,0.148-3.469c0.66-12.681,0.827-25.39,0.093-38.071
			c-0.138-2.383-3.865-2.399-3.726,0c0.12,2.066,0.208,4.133,0.281,6.201c-0.59,0.054-1.604-4.589-1.672-5.061
			c-0.269-1.862-0.358-3.757-0.384-5.636c-0.053-3.719,0.231-7.431,0.513-11.137c0.137-1.794-2.658-1.785-2.794,0
			c-0.418,5.475-0.837,10.998-0.17,16.471c0.279,2.291,1.385,8.567,4.6,8.243c0.212,8.198,0.094,16.403-0.257,24.598
			c-0.24,5.613-0.578,11.222-0.994,16.825c-0.318,4.271-0.784,10.498-6.089,10.669v-19.064c0-2.397-3.726-2.401-3.726,0v12.365
			c-0.837-0.068-1.632-0.318-2.049-1.068c-0.695-1.248-0.592-3.207-0.707-4.58c-0.273-3.27-0.255-6.545-0.003-9.815
			c0.138-1.793-2.657-1.785-2.794,0c-0.35,4.55-0.288,9.192,0.455,13.704c0.499,3.029,2.512,4.235,5.098,4.491v7.826
			c-1.852-0.201-3.929-0.604-5.182-1.756c-1.536-1.413-1.988-3.9-2.432-5.838c-1.095-4.781-1.311-9.701-1.49-14.586
			c-0.053-1.462-0.104-2.924-0.156-4.385c2.517-0.504,4.744-1.737,5.659-4.426c0.573-1.684,0.544-3.576,0.635-5.333
			c0.122-2.332,0.22-4.665,0.294-6.999c0.047-1.478,0.08-2.955,0.108-4.433c2.057-0.21,3.87-1.402,4.959-3.324
			c1.816-3.205,1.137-7.45,1.096-10.971c-0.098-8.528-0.272-17.057-0.828-25.569c-0.117-1.785-2.912-1.798-2.794,0
			c0.443,6.785,0.647,13.58,0.757,20.378c0.054,3.337,0.108,6.675,0.121,10.012c0.01,2.397-0.462,6.365-3.269,6.741
			c0.071-6.704-0.053-13.409-0.365-20.107c-0.111-2.388-3.838-2.401-3.726,0c0.354,7.612,0.471,15.232,0.327,22.851
			c-0.07,3.686-0.199,7.371-0.387,11.053c-0.077,1.508,0.14,3.649-0.655,5.011c-0.455,0.78-1.223,1.179-2.065,1.395
			c-0.269-7.562-0.533-15.124-0.8-22.686c-0.085-2.391-3.811-2.402-3.726,0c0.289,8.185,0.482,16.385,0.795,24.575
			c-0.047,0.288-0.035,0.583,0.034,0.858c0.074,1.875,0.152,3.75,0.242,5.624c-3.111,0.961-4.357-4.3-4.724-6.326
			c-0.704-3.889-0.977-7.852-1.124-11.797c-0.291-7.824-0.212-15.669-0.276-23.497c-0.02-2.396-3.746-2.402-3.726,0
			c0.068,8.247-0.141,16.57,0.312,24.823c-2.4-1.136-2.414-5.697-2.564-7.912c-0.223-3.31-0.248-6.628-0.26-9.944
			c-0.028-7.166-0.047-14.332-0.07-21.498c-0.006-1.798-2.8-1.801-2.794,0c0.028,8.586-0.044,17.179,0.107,25.763
			c0.079,4.502-0.591,15.831,5.779,16.618c0.037,0.485,0.075,0.971,0.117,1.455c0.346,3.925,0.567,8.513,2.515,12.035
			c1.452,2.625,4.099,4.186,6.896,3.904c0.007,0.118,0.012,0.236,0.018,0.353c0.288,5.131,0.7,10.698,2.692,15.494
			c1.802,4.338,5.699,5.646,9.951,6.156v13.107c0,2.397,3.726,2.401,3.726,0v-16.943c4.805-0.041,8.096-3.715,9.08-8.3
			c0.769-3.582,1.047-7.336,1.216-11.079c1.786-0.222,3.389-1.488,4.315-3.105c1.49-2.599,1.833-5.798,2.216-8.724
			c2.047,0.434,4.269-0.698,5.389-2.536c1.874-3.077,1.707-7.584,2.019-11.055C313.062,336.933,313.312,328.119,313.068,319.313z"/>
		
			<linearGradient id="SVGID_00000174596444357294006880000009144547811177737346_" gradientUnits="userSpaceOnUse" x1="686.0582" y1="346.8283" x2="686.0582" y2="443.7726">
			<stop  offset="0" style="stop-color:#4C328A"/>
			<stop  offset="1" style="stop-color:#1E0C40"/>
		</linearGradient>
		<path style="fill:url(#SVGID_00000174596444357294006880000009144547811177737346_);" d="M714.428,362.643
			c-0.05-1.794-2.844-1.802-2.794,0c0.19,6.849,0.086,13.702-0.346,20.54c-0.216,3.418-0.51,6.832-0.884,10.236
			c-0.186,1.687-0.857,7.829-3.818,6.412c0.33-2.693,0.615-5.392,0.849-8.096c0.302-3.487,0.781-7.067,0.169-10.539
			c-0.416-2.357-4.007-1.358-3.593,0.99c0.463,2.627,0.032,5.442-0.179,8.08c-0.206,2.57-0.456,5.137-0.749,7.699
			c-0.206,1.8-0.677,10.951-3.23,12.502c0.043-1.166,0.089-2.324,0.148-3.469c0.66-12.681,0.827-25.39,0.093-38.071
			c-0.138-2.383-3.865-2.399-3.726,0c0.12,2.066,0.208,4.133,0.281,6.201c-0.59,0.054-1.604-4.589-1.672-5.061
			c-0.269-1.862-0.357-3.757-0.384-5.636c-0.053-3.719,0.23-7.432,0.513-11.137c0.137-1.793-2.658-1.785-2.794,0
			c-0.418,5.475-0.837,10.998-0.17,16.471c0.279,2.291,1.385,8.568,4.6,8.243c0.212,8.198,0.094,16.403-0.258,24.598
			c-0.24,5.613-0.578,11.222-0.994,16.824c-0.318,4.271-0.784,10.498-6.089,10.669v-19.064c0-2.397-3.726-2.401-3.726,0v12.365
			c-0.837-0.068-1.632-0.318-2.049-1.068c-0.694-1.247-0.592-3.206-0.706-4.58c-0.273-3.27-0.255-6.545-0.003-9.815
			c0.138-1.793-2.657-1.785-2.794,0c-0.35,4.55-0.288,9.192,0.455,13.704c0.499,3.029,2.511,4.235,5.098,4.491v7.826
			c-1.852-0.201-3.929-0.603-5.182-1.756c-1.536-1.413-1.989-3.9-2.432-5.838c-1.095-4.782-1.311-9.701-1.49-14.586
			c-0.053-1.462-0.104-2.923-0.156-4.385c2.517-0.504,4.744-1.737,5.659-4.426c0.573-1.684,0.544-3.576,0.635-5.333
			c0.122-2.332,0.22-4.665,0.294-6.999c0.047-1.478,0.081-2.955,0.108-4.433c2.057-0.21,3.87-1.402,4.959-3.324
			c1.816-3.205,1.137-7.45,1.096-10.971c-0.098-8.528-0.272-17.057-0.828-25.569c-0.117-1.785-2.912-1.799-2.794,0
			c0.443,6.785,0.647,13.58,0.757,20.378c0.054,3.337,0.108,6.675,0.121,10.013c0.01,2.397-0.463,6.365-3.27,6.741
			c0.071-6.704-0.053-13.409-0.365-20.107c-0.111-2.388-3.838-2.401-3.726,0c0.354,7.612,0.471,15.233,0.327,22.851
			c-0.07,3.686-0.199,7.371-0.387,11.053c-0.077,1.508,0.14,3.649-0.655,5.011c-0.455,0.78-1.223,1.179-2.065,1.395
			c-0.269-7.562-0.532-15.124-0.8-22.686c-0.085-2.391-3.811-2.402-3.726,0c0.289,8.185,0.482,16.385,0.795,24.575
			c-0.046,0.288-0.035,0.583,0.034,0.858c0.074,1.875,0.152,3.75,0.242,5.623c-3.111,0.961-4.358-4.3-4.724-6.325
			c-0.704-3.889-0.977-7.852-1.124-11.798c-0.291-7.823-0.212-15.669-0.277-23.497c-0.02-2.396-3.745-2.402-3.726,0
			c0.068,8.247-0.141,16.57,0.312,24.823c-2.4-1.136-2.414-5.697-2.564-7.912c-0.224-3.31-0.248-6.628-0.261-9.944
			c-0.028-7.166-0.047-14.332-0.07-21.498c-0.006-1.798-2.8-1.801-2.794,0c0.028,8.586-0.044,17.179,0.107,25.763
			c0.079,4.502-0.591,15.831,5.779,16.618c0.037,0.485,0.075,0.97,0.117,1.455c0.346,3.925,0.567,8.513,2.515,12.035
			c1.451,2.625,4.099,4.186,6.896,3.904c0.007,0.118,0.012,0.236,0.018,0.353c0.288,5.131,0.7,10.698,2.692,15.494
			c1.802,4.338,5.699,5.646,9.951,6.156v13.107c0,2.398,3.726,2.401,3.726,0v-16.943c4.805-0.041,8.096-3.715,9.08-8.3
			c0.769-3.582,1.047-7.336,1.216-11.079c1.785-0.222,3.388-1.488,4.315-3.105c1.49-2.599,1.833-5.799,2.216-8.724
			c2.047,0.434,4.269-0.698,5.389-2.536c1.875-3.077,1.707-7.584,2.019-11.055C714.422,380.263,714.672,371.45,714.428,362.643z"/>
		
			<linearGradient id="SVGID_00000011003817550642961710000002451816103552562875_" gradientUnits="userSpaceOnUse" x1="290.3896" y1="421.6854" x2="290.3896" y2="389.7014">
			<stop  offset="0" style="stop-color:#4C328A"/>
			<stop  offset="1" style="stop-color:#1E0C40"/>
		</linearGradient>
		<path style="fill:url(#SVGID_00000011003817550642961710000002451816103552562875_);" d="M307.706,401.24
			c-3.982-0.254-8.698,1.641-12.332,4.595c0.398-0.512,0.815-1.014,1.278-1.494c2.625-2.718,5.838-5.054,9.104-6.935
			c0.191-0.11,0.062-0.403-0.148-0.351c-4.179,1.033-7.633,3.148-10.511,6.368c-0.577,0.646-1.17,1.354-1.74,2.107
			c0.347-0.889,0.747-1.763,1.244-2.612c1.823-3.111,4.586-5.851,7.553-7.871c0.258-0.175,0.098-0.563-0.211-0.5
			c-2.597,0.533-4.957,1.945-6.894,3.875c1.081-1.779,2.301-3.479,3.585-5.088c0.11-0.138-0.037-0.398-0.209-0.271
			c-2.111,1.553-3.771,3.377-5.082,5.508c1.714-3.756,4.193-7.106,6.833-10.269c0.131-0.157-0.036-0.426-0.233-0.301
			c-4.142,2.612-6.916,6.579-8.688,11.095c-0.2,0.509-0.399,1.066-0.593,1.643c-0.011-0.14-0.023-0.278-0.034-0.417
			c0.038-0.28,0.081-0.561,0.132-0.843c0.811-4.537,2.389-9.111,4.288-13.3c0.116-0.257-0.204-0.437-0.373-0.218
			c-2.175,2.823-3.685,5.802-4.676,9.04c-0.517-3.098-1.322-6.121-2.551-9.063c-0.111-0.265-0.487-0.171-0.435,0.12
			c0.775,4.361,1.618,8.745,2.01,13.163c-0.043,0.263-0.095,0.519-0.132,0.786c-0.019,0.137-0.037,0.279-0.056,0.419
			c-0.154-0.462-0.305-0.909-0.447-1.328c-0.797-2.34-1.693-5.227-3.443-7.142c0.092-0.599,0.189-1.197,0.294-1.795
			c0.027-0.154-0.19-0.276-0.272-0.115c-0.224,0.441-0.421,0.891-0.602,1.345c-0.622-0.544-1.335-0.977-2.174-1.236
			c-0.221-0.068-0.325,0.201-0.206,0.353c0.664,0.843,1.239,1.787,1.749,2.789c-0.459,1.738-0.639,3.535-0.581,5.337
			c-0.948-0.859-2.058-1.493-3.432-1.692c-0.227-0.033-0.378,0.249-0.163,0.386c1.578,1.004,2.796,2.344,3.833,3.851
			c0.147,0.963,0.353,1.92,0.619,2.861c0.044,0.157,0.097,0.336,0.156,0.528c-0.278-0.23-0.553-0.454-0.818-0.668
			c-3.002-2.416-6.436-4.573-10.3-5.158c-0.348-0.053-0.555,0.367-0.244,0.579c1.274,0.865,2.586,1.654,3.893,2.444
			c-1.162-0.134-2.355-0.014-3.547,0.463c-0.194,0.078-0.197,0.438,0.055,0.405c4.118-0.527,6.939,1.846,9.668,4.593
			c0.017,0.017,0.039,0.039,0.06,0.059c-2.376-1.464-4.904-2.483-7.765-2.776c-0.264-0.027-0.289,0.367-0.06,0.443
			c2.619,0.87,5.046,2.129,7.339,3.654c-2.503-0.606-5.137-0.483-7.562,0.48c-0.25,0.1-0.253,0.551,0.07,0.518
			c2.93-0.293,5.743-0.043,8.495,1.073c0.214,0.087,0.419,0.186,0.624,0.288c-0.109-0.016-0.218-0.032-0.322-0.047
			c-2.763-0.387-5.579,0.128-8.07,1.374c-0.25,0.125-0.063,0.462,0.177,0.421c2.863-0.493,5.693-0.589,8.555-0.012
			c1.366,0.275,2.719,0.998,4.095,1.174c0.05,0.026,0.099,0.054,0.15,0.079c0.037,0.019,0.074,0,0.09-0.03
			c0.096,0.053,0.191,0.109,0.29,0.157c0.012,0.03,0.03,0.061,0.04,0.091c-0.051,0.096,0.016,0.209,0.114,0.239
			c0.046,0.028,0.108,0.019,0.154-0.016c0.073-0.023,0.144-0.046,0.217-0.069c0.011,0.004,0.021,0.011,0.033,0.015
			c0.068,0.027,0.122-0.016,0.149-0.073c2.069-0.656,4.043-1.298,6.202-1.699c2.413-0.447,4.807-0.738,7.157-1.468
			c0.349-0.108,0.251-0.564-0.082-0.603c-2.427-0.284-4.791,0.019-7.153,0.532c0.553-0.193,1.084-0.374,1.568-0.548
			c2.612-0.94,5.283-1.685,7.893-2.628c0.293-0.106,0.257-0.548-0.075-0.556c-3.292-0.077-6.302,0.693-9.345,1.952
			c-0.458,0.19-0.974,0.396-1.514,0.622c1.29-1.213,2.625-2.379,4.17-3.355c2.95-1.864,6.23-2.982,9.348-4.502
			C308.317,401.823,308.086,401.264,307.706,401.24z M284.566,395.109c1.003,2.413,1.728,5.012,2.425,7.323
			c0.231,0.767,0.422,1.582,0.602,2.416c-0.461-0.791-0.934-1.546-1.382-2.247c-0.51-0.797-1.038-1.617-1.622-2.379
			C284.404,398.513,284.423,396.809,284.566,395.109z"/>
		
			<linearGradient id="SVGID_00000018198056129779511280000004422954945250316966_" gradientUnits="userSpaceOnUse" x1="397.149" y1="433.802" x2="397.149" y2="410.8306" gradientTransform="matrix(0.9712 0.2382 -0.2382 0.9712 109.9604 -86.4131)">
			<stop  offset="0" style="stop-color:#4C328A"/>
			<stop  offset="1" style="stop-color:#1E0C40"/>
		</linearGradient>
		<path style="fill:url(#SVGID_00000018198056129779511280000004422954945250316966_);" d="M407.917,418.197
			c-2.734-0.858-6.348-0.343-9.388,1.095c0.365-0.289,0.742-0.568,1.147-0.823c2.296-1.447,4.936-2.527,7.537-3.28
			c0.152-0.044,0.112-0.27-0.043-0.27c-3.092,0.005-5.863,0.89-8.421,2.644c-0.513,0.352-1.048,0.744-1.574,1.172
			c0.394-0.561,0.822-1.102,1.315-1.609c1.804-1.858,4.2-3.297,6.615-4.198c0.21-0.078,0.165-0.376-0.062-0.385
			c-1.903-0.073-3.79,0.509-5.471,1.523c1.058-1.056,2.2-2.033,3.371-2.936c0.101-0.078,0.042-0.284-0.1-0.225
			c-1.738,0.722-3.208,1.71-4.487,2.973c1.838-2.327,4.14-4.24,6.523-5.994c0.118-0.087,0.048-0.303-0.111-0.25
			c-3.336,1.113-5.95,3.406-7.958,6.253c-0.227,0.321-0.461,0.676-0.695,1.045c0.016-0.1,0.032-0.198,0.048-0.297
			c0.075-0.189,0.153-0.378,0.236-0.565c1.342-3.026,3.225-5.946,5.266-8.544c0.125-0.159-0.068-0.34-0.223-0.216
			c-2,1.597-3.563,3.417-4.808,5.506c0.169-2.249,0.125-4.496-0.229-6.758c-0.032-0.204-0.31-0.203-0.324,0.009
			c-0.205,3.174-0.368,6.377-0.849,9.525c-0.075,0.176-0.155,0.346-0.227,0.526c-0.037,0.092-0.074,0.188-0.11,0.282
			c-0.028-0.349-0.057-0.686-0.085-1.003c-0.156-1.769-0.287-3.936-1.18-5.571c0.167-0.402,0.337-0.803,0.512-1.202
			c0.045-0.103-0.085-0.225-0.17-0.126c-0.232,0.269-0.446,0.549-0.65,0.835c-0.341-0.486-0.764-0.91-1.305-1.234
			c-0.143-0.086-0.261,0.085-0.204,0.211c0.319,0.702,0.558,1.458,0.742,2.245c-0.617,1.134-1.05,2.357-1.318,3.623
			c-0.514-0.761-1.18-1.394-2.105-1.767c-0.153-0.062-0.306,0.109-0.18,0.241c0.929,0.97,1.549,2.114,2.015,3.342
			c-0.063,0.697-0.082,1.4-0.058,2.102c0.004,0.117,0.01,0.251,0.018,0.395c-0.155-0.208-0.308-0.411-0.456-0.606
			c-1.681-2.199-3.707-4.291-6.302-5.36c-0.234-0.096-0.45,0.161-0.269,0.362c0.741,0.822,1.521,1.596,2.298,2.371
			c-0.788-0.292-1.64-0.413-2.553-0.284c-0.148,0.021-0.212,0.271-0.031,0.292c2.962,0.337,4.525,2.474,5.958,4.857
			c0.009,0.015,0.021,0.034,0.032,0.052c-1.407-1.428-2.996-2.571-4.942-3.264c-0.18-0.064-0.264,0.207-0.118,0.299
			c1.678,1.055,3.155,2.349,4.494,3.804c-1.642-0.851-3.501-1.216-5.357-0.959c-0.192,0.026-0.271,0.341-0.04,0.374
			c2.094,0.297,4.013,0.952,5.742,2.201c0.134,0.097,0.261,0.201,0.386,0.307c-0.073-0.03-0.146-0.06-0.216-0.088
			c-1.861-0.743-3.913-0.865-5.864-0.422c-0.195,0.044-0.123,0.312,0.052,0.324c2.081,0.146,4.072,0.563,5.969,1.455
			c0.905,0.426,1.725,1.161,2.655,1.52c0.03,0.027,0.06,0.054,0.091,0.081c0.023,0.019,0.051,0.013,0.068-0.005
			c0.058,0.053,0.115,0.108,0.175,0.159c0.003,0.023,0.01,0.048,0.012,0.07c-0.052,0.058-0.024,0.149,0.038,0.186
			c0.028,0.028,0.072,0.032,0.11,0.015c0.055-0.004,0.109-0.007,0.163-0.011c0.007,0.005,0.013,0.011,0.02,0.016
			c0.043,0.031,0.088,0.01,0.116-0.025c1.555-0.104,3.042-0.214,4.616-0.124c1.76,0.101,3.479,0.307,5.243,0.201
			c0.262-0.016,0.272-0.351,0.046-0.435c-1.644-0.613-3.345-0.806-5.08-0.852c0.419-0.04,0.82-0.076,1.188-0.114
			c1.982-0.209,3.973-0.271,5.955-0.483c0.223-0.024,0.273-0.339,0.043-0.401c-2.283-0.617-4.514-0.595-6.853-0.237
			c-0.352,0.054-0.747,0.109-1.162,0.175c1.107-0.625,2.238-1.21,3.483-1.627c2.376-0.795,4.856-1.015,7.291-1.541
			C408.243,418.708,408.177,418.279,407.917,418.197z M392.824,409.962c0.287,1.855,0.348,3.792,0.439,5.523
			c0.03,0.575,0.024,1.176,0.006,1.788c-0.186-0.63-0.387-1.238-0.58-1.804c-0.219-0.643-0.447-1.306-0.724-1.937
			C392.129,412.309,392.434,411.124,392.824,409.962z"/>
		
			<linearGradient id="SVGID_00000044866950567814197380000016762374871889593007_" gradientUnits="userSpaceOnUse" x1="240.5" y1="472.0001" x2="240.5" y2="330.7131">
			<stop  offset="0" style="stop-color:#9376D6"/>
			<stop  offset="1" style="stop-color:#54378C"/>
		</linearGradient>
		<polygon style="fill:url(#SVGID_00000044866950567814197380000016762374871889593007_);" points="98,325 293,410 333,402 538,459 
			413,533 -19,517 -57,341 		"/>
	</g>
	
		<linearGradient id="SVGID_00000037651750322051941590000011922114156125144198_" gradientUnits="userSpaceOnUse" x1="302" y1="372" x2="302" y2="508.5287">
		<stop  offset="0" style="stop-color:#684CA8"/>
		<stop  offset="1" style="stop-color:#321B5E"/>
	</linearGradient>
	
		<polygon style="clip-path:url(#SVGID_00000170255400858113310980000002505470867749135497_);fill:url(#SVGID_00000037651750322051941590000011922114156125144198_);" points="
		62,416 140,394 207,420 273,431 310,431 351,455 397,447 466,420 542,474 431,513 102,468 	"/>
	
		<linearGradient id="SVGID_00000098919894829487964260000012986126847873047957_" gradientUnits="userSpaceOnUse" x1="316" y1="414.0001" x2="316" y2="543.5223">
		<stop  offset="0" style="stop-color:#4C328A"/>
		<stop  offset="1" style="stop-color:#1E0C40"/>
	</linearGradient>
	
		<path style="clip-path:url(#SVGID_00000170255400858113310980000002505470867749135497_);fill:url(#SVGID_00000098919894829487964260000012986126847873047957_);" d="
		M-21,364l69,10l49,37h21l83,37h43c0,0,351,75,422,73H-34L-21,364z"/>
	
		<linearGradient id="SVGID_00000054242031390771231710000003768268997490326435_" gradientUnits="userSpaceOnUse" x1="618.0203" y1="287.9187" x2="618.0203" y2="442.4586">
		<stop  offset="0" style="stop-color:#372463"/>
		<stop  offset="1" style="stop-color:#0C0519"/>
	</linearGradient>
	
		<path style="clip-path:url(#SVGID_00000170255400858113310980000002505470867749135497_);fill:url(#SVGID_00000054242031390771231710000003768268997490326435_);" d="
		M663.245,313.13c-0.079-2.861-4.534-2.872-4.455,0c0.303,10.918,0.137,21.843-0.552,32.744c-0.344,5.449-0.813,10.891-1.41,16.318
		c-0.296,2.69-1.365,12.48-6.087,10.222c0.526-4.294,0.98-8.596,1.354-12.906c0.482-5.558,1.245-11.266,0.269-16.8
		c-0.663-3.758-6.388-2.165-5.727,1.579c0.739,4.188,0.051,8.675-0.285,12.88c-0.328,4.098-0.727,8.19-1.194,12.274
		c-0.328,2.87-1.08,17.457-5.149,19.93c0.069-1.858,0.141-3.705,0.236-5.531c1.052-20.215,1.318-40.474,0.148-60.69
		c-0.22-3.799-6.161-3.825-5.939,0c0.191,3.294,0.331,6.589,0.449,9.884c-0.941,0.087-2.556-7.316-2.665-8.067
		c-0.428-2.968-0.57-5.989-0.613-8.985c-0.085-5.929,0.367-11.847,0.818-17.754c0.218-2.859-4.238-2.845-4.455,0
		c-0.666,8.728-1.335,17.531-0.271,26.256c0.445,3.652,2.207,13.658,7.332,13.141c0.338,13.069,0.149,26.148-0.41,39.212
		c-0.383,8.947-0.921,17.889-1.585,26.82c-0.506,6.808-1.249,16.735-9.706,17.008v-30.39c0-3.822-5.94-3.828-5.94,0v19.712
		c-1.334-0.109-2.601-0.508-3.266-1.702c-1.107-1.989-0.943-5.112-1.126-7.3c-0.435-5.212-0.406-10.434-0.005-15.647
		c0.22-2.859-4.236-2.845-4.455,0c-0.558,7.253-0.458,14.653,0.725,21.846c0.795,4.829,4.004,6.751,8.127,7.16v12.476
		c-2.952-0.321-6.263-0.962-8.261-2.8c-2.449-2.253-3.17-6.217-3.877-9.307c-1.745-7.622-2.09-15.464-2.375-23.251
		c-0.085-2.33-0.166-4.66-0.249-6.991c4.013-0.803,7.563-2.769,9.021-7.055c0.913-2.685,0.867-5.7,1.013-8.501
		c0.194-3.717,0.351-7.436,0.469-11.156c0.075-2.355,0.128-4.711,0.172-7.067c3.279-0.334,6.169-2.235,7.905-5.299
		c2.895-5.109,1.812-11.876,1.748-17.489c-0.156-13.595-0.433-27.191-1.32-40.76c-0.186-2.846-4.642-2.867-4.455,0
		c0.707,10.815,1.032,21.648,1.207,32.484c0.086,5.319,0.172,10.641,0.193,15.961c0.015,3.822-0.737,10.147-5.212,10.746
		c0.113-10.687-0.085-21.376-0.582-32.053c-0.177-3.806-6.117-3.827-5.94,0c0.565,12.134,0.751,24.282,0.522,36.428
		c-0.111,5.876-0.317,11.75-0.617,17.62c-0.123,2.404,0.223,5.817-1.044,7.988c-0.725,1.243-1.95,1.879-3.292,2.223
		c-0.428-12.055-0.849-24.109-1.275-36.164c-0.135-3.811-6.075-3.829-5.939,0c0.461,13.049,0.768,26.119,1.267,39.175
		c-0.074,0.459-0.056,0.93,0.054,1.368c0.117,2.989,0.242,5.978,0.386,8.965c-4.96,1.533-6.946-6.855-7.53-10.083
		c-1.122-6.2-1.557-12.517-1.791-18.806c-0.464-12.472-0.339-24.978-0.441-37.457c-0.031-3.82-5.971-3.829-5.939,0
		c0.108,13.147-0.225,26.415,0.497,39.571c-3.826-1.811-3.849-9.081-4.088-12.613c-0.356-5.276-0.395-10.566-0.415-15.852
		c-0.044-11.423-0.074-22.847-0.111-34.27c-0.009-2.866-4.464-2.871-4.454,0c0.044,13.686-0.07,27.384,0.17,41.069
		c0.126,7.177-0.942,25.237,9.213,26.49c0.059,0.774,0.119,1.547,0.187,2.32c0.551,6.257,0.903,13.571,4.009,19.185
		c2.314,4.184,6.535,6.673,10.993,6.224c0.01,0.188,0.019,0.375,0.029,0.563c0.459,8.179,1.116,17.054,4.292,24.699
		c2.873,6.916,9.084,9,15.862,9.813v20.894c0,3.822,5.94,3.828,5.94,0v-27.01c7.66-0.065,12.906-5.922,14.475-13.231
		c1.225-5.71,1.669-11.694,1.938-17.662c2.846-0.354,5.402-2.373,6.879-4.949c2.375-4.143,2.921-9.244,3.532-13.907
		c3.264,0.692,6.806-1.112,8.591-4.042c2.988-4.905,2.721-12.089,3.218-17.623C663.235,341.218,663.634,327.168,663.245,313.13z"/>
	
		<linearGradient id="SVGID_00000127759229098207424790000018163568154024759994_" gradientUnits="userSpaceOnUse" x1="537.5" y1="431" x2="537.5" y2="564.0944">
		<stop  offset="0" style="stop-color:#372463"/>
		<stop  offset="1" style="stop-color:#0C0519"/>
	</linearGradient>
	
		<path style="clip-path:url(#SVGID_00000170255400858113310980000002505470867749135497_);fill:url(#SVGID_00000127759229098207424790000018163568154024759994_);" d="
		M273,507c0,0,206-38,254-65l34,2l21-6l21-3l16,9l28-6l37,6l113-32l5,119L273,507z"/>
	
		<linearGradient id="SVGID_00000093855160265141579410000008193597217069869743_" gradientUnits="userSpaceOnUse" x1="129.0316" y1="234" x2="129.0316" y2="494.1921">
		<stop  offset="0" style="stop-color:#372463"/>
		<stop  offset="1" style="stop-color:#0C0519"/>
	</linearGradient>
	
		<path style="clip-path:url(#SVGID_00000170255400858113310980000002505470867749135497_);fill:url(#SVGID_00000093855160265141579410000008193597217069869743_);" d="
		M205.174,276.447c-0.134-4.816-7.634-4.836-7.5,0c0.51,18.382,0.23,36.776-0.929,55.129c-0.579,9.174-1.369,18.336-2.374,27.474
		c-0.498,4.528-2.299,21.013-10.248,17.21c0.886-7.229,1.65-14.473,2.279-21.73c0.811-9.358,2.096-18.968,0.452-28.286
		c-1.116-6.326-10.755-3.645-9.643,2.658c1.244,7.052,0.086,14.605-0.48,21.686c-0.552,6.899-1.224,13.788-2.01,20.665
		c-0.552,4.832-1.819,29.391-8.669,33.555c0.116-3.129,0.238-6.238,0.398-9.312c1.77-34.034,2.219-68.144,0.249-102.18
		c-0.37-6.397-10.373-6.44-10,0c0.321,5.545,0.558,11.093,0.755,16.642c-1.584,0.146-4.304-12.317-4.487-13.582
		c-0.721-4.998-0.96-10.083-1.032-15.127c-0.142-9.982,0.619-19.946,1.377-29.891c0.367-4.814-7.135-4.79-7.5,0
		c-1.121,14.694-2.247,29.517-0.457,44.207c0.75,6.149,3.716,22.995,12.345,22.125c0.57,22.003,0.251,44.024-0.691,66.019
		c-0.645,15.064-1.551,30.12-2.669,45.156c-0.852,11.463-2.103,28.177-16.342,28.635v-51.167c0-6.435-10-6.445-10,0v33.188
		c-2.245-0.183-4.379-0.854-5.499-2.866c-1.864-3.348-1.589-8.606-1.896-12.292c-0.732-8.776-0.684-17.567-0.009-26.344
		c0.37-4.814-7.132-4.79-7.5,0c-0.939,12.212-0.772,24.67,1.221,36.78c1.338,8.13,6.741,11.366,13.683,12.055v21.005
		c-4.97-0.54-10.544-1.62-13.908-4.714c-4.123-3.793-5.337-10.467-6.528-15.669c-2.938-12.833-3.519-26.036-3.998-39.147
		c-0.143-3.923-0.279-7.847-0.42-11.77c6.756-1.352,12.733-4.662,15.188-11.879c1.537-4.52,1.46-9.597,1.706-14.312
		c0.327-6.258,0.59-12.52,0.789-18.784c0.126-3.966,0.216-7.932,0.29-11.899c5.52-0.563,10.387-3.763,13.309-8.921
		c4.874-8.603,3.051-19.996,2.943-29.445c-0.263-22.889-0.729-45.78-2.222-68.626c-0.313-4.792-7.815-4.827-7.5,0
		c1.19,18.209,1.737,36.448,2.033,54.692c0.145,8.956,0.29,17.916,0.325,26.873c0.025,6.434-1.242,17.084-8.775,18.092
		c0.191-17.993-0.144-35.99-0.98-53.967c-0.298-6.408-10.3-6.444-10,0c0.95,20.43,1.265,40.883,0.878,61.332
		c-0.187,9.893-0.533,19.784-1.039,29.666c-0.207,4.047,0.375,9.794-1.758,13.449c-1.221,2.092-3.283,3.164-5.543,3.743
		c-0.721-20.296-1.429-40.592-2.147-60.888c-0.227-6.417-10.228-6.447-10,0c0.777,21.969,1.293,43.975,2.133,65.957
		c-0.125,0.773-0.095,1.566,0.09,2.304c0.198,5.033,0.408,10.064,0.65,15.093c-8.351,2.58-11.695-11.541-12.678-16.977
		c-1.888-10.439-2.622-21.074-3.016-31.664c-0.78-20.998-0.57-42.054-0.742-63.064c-0.053-6.432-10.053-6.447-10,0
		c0.181,22.135-0.379,44.474,0.836,66.625c-6.441-3.049-6.48-15.289-6.882-21.236c-0.6-8.883-0.665-17.789-0.699-26.689
		c-0.075-19.233-0.125-38.466-0.187-57.699c-0.016-4.825-7.516-4.834-7.5,0c0.075,23.044-0.118,46.106,0.287,69.146
		c0.212,12.084-1.586,42.49,15.511,44.601c0.1,1.302,0.201,2.605,0.315,3.906c0.928,10.534,1.521,22.849,6.749,32.302
		c3.896,7.044,11.002,11.235,18.508,10.479c0.017,0.316,0.031,0.632,0.049,0.948c0.772,13.771,1.878,28.714,7.226,41.585
		c4.838,11.644,15.295,15.153,26.707,16.521V513c0,6.435,10,6.445,10,0v-45.475c12.897-0.109,21.73-9.971,24.371-22.276
		c2.063-9.613,2.811-19.689,3.263-29.737c4.792-0.595,9.094-3.995,11.581-8.333c3.999-6.975,4.919-15.563,5.947-23.414
		c5.495,1.165,11.458-1.873,14.464-6.806c5.031-8.259,4.582-20.354,5.418-29.67C205.157,323.738,205.83,300.082,205.174,276.447z"/>
	
		<linearGradient id="SVGID_00000158725118113297182930000006091039918560968115_" gradientUnits="userSpaceOnUse" x1="283.2931" y1="530.5001" x2="283.2931" y2="467.4982">
		<stop  offset="0" style="stop-color:#372463"/>
		<stop  offset="1" style="stop-color:#0C0519"/>
	</linearGradient>
	
		<path style="clip-path:url(#SVGID_00000170255400858113310980000002505470867749135497_);fill:url(#SVGID_00000158725118113297182930000006091039918560968115_);" d="
		M317.404,490.226c-7.843-0.5-17.132,3.232-24.292,9.051c0.784-1.008,1.605-1.997,2.518-2.943
		c5.17-5.355,11.499-9.955,17.933-13.661c0.376-0.217,0.123-0.794-0.291-0.691c-8.232,2.034-15.036,6.201-20.704,12.543
		c-1.137,1.272-2.305,2.668-3.428,4.151c0.683-1.751,1.471-3.473,2.451-5.146c3.59-6.129,9.033-11.526,14.879-15.505
		c0.508-0.345,0.193-1.11-0.415-0.985c-5.116,1.05-9.764,3.832-13.579,7.632c2.128-3.504,4.533-6.852,7.062-10.022
		c0.217-0.273-0.073-0.784-0.412-0.534c-4.159,3.058-7.427,6.651-10.011,10.85c3.376-7.399,8.259-13.998,13.46-20.228
		c0.259-0.31-0.071-0.838-0.458-0.594C293.956,469.29,288.491,477.104,285,486c-0.394,1.003-0.786,2.101-1.168,3.237
		c-0.021-0.276-0.044-0.548-0.067-0.822c0.075-0.552,0.16-1.106,0.26-1.66c1.599-8.938,4.705-17.946,8.446-26.199
		c0.23-0.506-0.402-0.861-0.735-0.429c-4.284,5.561-7.259,11.429-9.211,17.808c-1.018-6.103-2.604-12.056-5.024-17.852
		c-0.218-0.522-0.959-0.338-0.857,0.236c1.527,8.589,3.186,17.226,3.96,25.928c-0.084,0.517-0.187,1.023-0.261,1.548
		c-0.038,0.27-0.073,0.549-0.11,0.824c-0.302-0.91-0.601-1.79-0.881-2.615c-1.57-4.61-3.335-10.296-6.782-14.068
		c0.181-1.179,0.372-2.358,0.579-3.535c0.053-0.304-0.374-0.544-0.536-0.226c-0.442,0.869-0.829,1.755-1.186,2.649
		c-1.225-1.071-2.629-1.924-4.283-2.435c-0.436-0.135-0.64,0.396-0.405,0.695c1.308,1.661,2.44,3.52,3.444,5.495
		c-0.904,3.424-1.259,6.964-1.144,10.512c-1.867-1.692-4.054-2.942-6.761-3.333c-0.447-0.065-0.745,0.49-0.32,0.76
		c3.108,1.978,5.508,4.618,7.551,7.585c0.289,1.897,0.695,3.782,1.219,5.636c0.087,0.31,0.191,0.662,0.307,1.04
		c-0.548-0.454-1.089-0.895-1.611-1.316c-5.913-4.759-12.678-9.008-20.289-10.16c-0.687-0.104-1.094,0.724-0.481,1.14
		c2.51,1.705,5.093,3.258,7.669,4.814c-2.289-0.264-4.639-0.029-6.987,0.912c-0.382,0.153-0.389,0.862,0.108,0.798
		c8.111-1.038,13.669,3.636,19.044,9.046c0.033,0.034,0.077,0.076,0.119,0.117c-4.68-2.884-9.66-4.892-15.296-5.467
		c-0.521-0.053-0.57,0.723-0.118,0.873c5.159,1.713,9.94,4.195,14.455,7.197c-4.93-1.194-10.119-0.952-14.896,0.945
		c-0.493,0.196-0.498,1.085,0.138,1.021c5.771-0.578,11.312-0.085,16.733,2.113c0.421,0.171,0.826,0.366,1.229,0.567
		c-0.215-0.032-0.429-0.063-0.634-0.092c-5.442-0.763-10.989,0.253-15.896,2.707c-0.491,0.246-0.124,0.911,0.35,0.829
		c5.639-0.972,11.214-1.159,16.852-0.023c2.69,0.542,5.355,1.966,8.066,2.313c0.098,0.051,0.196,0.106,0.295,0.156
		c0.073,0.037,0.145,0.001,0.178-0.058c0.19,0.104,0.377,0.214,0.572,0.31c0.023,0.06,0.058,0.12,0.079,0.18
		c-0.101,0.189,0.032,0.412,0.224,0.471c0.092,0.055,0.213,0.038,0.303-0.032c0.144-0.045,0.284-0.09,0.428-0.135
		c0.022,0.009,0.042,0.021,0.064,0.03c0.134,0.054,0.241-0.031,0.293-0.143c4.075-1.291,7.963-2.557,12.216-3.346
		c4.754-0.881,9.469-1.454,14.097-2.891c0.688-0.214,0.495-1.112-0.161-1.188c-4.78-0.559-9.437,0.037-14.089,1.049
		c1.09-0.379,2.134-0.737,3.09-1.08c5.144-1.851,10.407-3.318,15.548-5.176c0.577-0.209,0.507-1.08-0.148-1.096
		c-6.484-0.153-12.414,1.364-18.408,3.845c-0.902,0.373-1.919,0.78-2.982,1.224c2.541-2.388,5.17-4.685,8.214-6.608
		c5.81-3.671,12.272-5.875,18.414-8.867C318.606,491.376,318.152,490.274,317.404,490.226z M271.821,478.15
		c1.975,4.754,3.404,9.873,4.777,14.425c0.456,1.512,0.832,3.117,1.185,4.759c-0.907-1.558-1.839-3.045-2.723-4.427
		c-1.004-1.57-2.044-3.185-3.194-4.687C271.504,484.856,271.541,481.499,271.821,478.15z"/>
	
		<linearGradient id="SVGID_00000075862075256767803950000001619593510651355293_" gradientUnits="userSpaceOnUse" x1="8.7374" y1="549.532" x2="8.7374" y2="454.438" gradientTransform="matrix(0.9431 0.3324 -0.3324 0.9431 161.3643 24.5794)">
		<stop  offset="0" style="stop-color:#372463"/>
		<stop  offset="1" style="stop-color:#0C0519"/>
	</linearGradient>
	
		<path style="clip-path:url(#SVGID_00000170255400858113310980000002505470867749135497_);fill:url(#SVGID_00000075862075256767803950000001619593510651355293_);" d="
		M55.703,505.53c-10.914-4.646-26.01-3.994-39.121,0.697c1.622-1.042,3.288-2.038,5.061-2.926
		c10.046-5.029,21.364-8.403,32.381-10.451c0.644-0.12,0.573-1.068-0.068-1.13c-12.738-1.235-24.514,1.284-35.765,7.469
		c-2.257,1.241-4.62,2.641-6.962,4.19c1.851-2.15,3.837-4.206,6.07-6.095c8.185-6.923,18.641-11.875,28.959-14.607
		c0.896-0.237,0.832-1.483-0.097-1.61c-7.809-1.072-15.822,0.556-23.159,4.052c4.788-3.921,9.891-7.479,15.081-10.724
		c0.446-0.279,0.29-1.153-0.319-0.968c-7.455,2.267-13.91,5.742-19.694,10.423c8.517-8.839,18.779-15.783,29.308-22.042
		c0.524-0.311,0.32-1.229-0.354-1.075c-14.196,3.231-25.895,11.613-35.327,22.525c-1.064,1.23-2.172,2.596-3.286,4.023
		c0.108-0.404,0.212-0.802,0.317-1.203c0.384-0.748,0.783-1.493,1.202-2.233c6.759-11.921,15.701-23.186,25.167-33.057
		c0.581-0.606-0.14-1.428-0.831-0.98c-8.887,5.767-16.067,12.629-22.046,20.729c1.612-9.198,2.342-18.469,1.805-27.934
		c-0.048-0.853-1.196-0.962-1.338-0.094c-2.136,12.993-4.107,26.12-7.371,38.896c-0.38,0.695-0.78,1.363-1.148,2.073
		c-0.189,0.365-0.38,0.745-0.57,1.119c0.026-1.447,0.043-2.85,0.057-4.164c0.078-7.35,0.418-16.329-2.597-23.428
		c0.849-1.588,1.713-3.17,2.599-4.742c0.229-0.406-0.26-0.962-0.649-0.59c-1.065,1.016-2.061,2.082-3.017,3.176
		c-1.206-2.139-2.777-4.058-4.876-5.615c-0.553-0.41-1.11,0.243-0.925,0.787c1.028,3.02,1.707,6.235,2.147,9.55
		c-3.004,4.421-5.285,9.282-6.902,14.39c-1.808-3.346-4.295-6.221-7.952-8.137c-0.604-0.317-1.306,0.324-0.838,0.921
		c3.431,4.375,5.524,9.337,6.944,14.586c-0.54,2.845-0.908,5.732-1.093,8.635c-0.031,0.485-0.06,1.038-0.085,1.635
		c-0.553-0.921-1.101-1.821-1.634-2.682c-6.03-9.742-13.529-19.183-23.784-24.641c-0.925-0.492-1.921,0.481-1.257,1.382
		c2.718,3.686,5.616,7.193,8.502,10.701c-3.125-1.525-6.589-2.368-10.404-2.207c-0.62,0.026-0.986,1.032-0.247,1.191
		c12.067,2.592,17.634,12.033,22.571,22.432c0.031,0.065,0.072,0.147,0.111,0.226c-5.215-6.453-11.297-11.81-19.03-15.457
		c-0.714-0.337-1.174,0.743-0.606,1.183c6.484,5.027,12.045,10.958,16.967,17.497c-6.42-4.173-13.926-6.432-21.678-6.128
		c-0.8,0.031-1.253,1.295-0.316,1.523c8.505,2.073,16.146,5.555,22.76,11.403c0.513,0.454,0.992,0.936,1.465,1.424
		c-0.29-0.154-0.579-0.305-0.856-0.449c-7.365-3.816-15.77-5.154-23.986-4.122c-0.823,0.103-0.633,1.235,0.082,1.356
		c8.514,1.446,16.545,3.976,24,8.422c3.557,2.121,6.636,5.486,10.321,7.34c0.114,0.123,0.226,0.249,0.342,0.37
		c0.086,0.089,0.206,0.074,0.282,0.006c0.218,0.244,0.429,0.494,0.658,0.728c0.003,0.097,0.023,0.2,0.022,0.295
		c-0.239,0.219-0.161,0.602,0.082,0.783c0.102,0.125,0.283,0.161,0.448,0.107c0.228,0.008,0.45,0.015,0.678,0.022
		c0.027,0.024,0.049,0.051,0.076,0.075c0.163,0.144,0.358,0.077,0.489-0.057c6.449,0.206,12.619,0.355,19.068,1.366
		c7.209,1.13,14.21,2.68,21.518,2.957c1.087,0.041,1.263-1.334,0.367-1.772c-6.524-3.194-13.452-4.681-20.583-5.575
		c1.742,0.007,3.408,0.022,4.94,0.012c8.252-0.054,16.479,0.497,24.73,0.432c0.926-0.007,1.263-1.283,0.339-1.634
		c-9.154-3.47-18.356-4.286-28.133-3.762c-1.471,0.079-3.123,0.147-4.859,0.247c4.816-2.125,9.71-4.076,15.008-5.286
		c10.113-2.311,20.417-2.206,30.662-3.384C56.838,507.77,56.744,505.974,55.703,505.53z M-3.125,465.472
		c0.427,7.758-0.107,15.763-0.437,22.931c-0.11,2.381-0.379,4.854-0.701,7.369c-0.51-2.672-1.09-5.257-1.655-7.667
		c-0.642-2.739-1.311-5.56-2.196-8.274C-6.942,474.859-5.205,470.099-3.125,465.472z"/>
	
		<linearGradient id="SVGID_00000079484540343971878410000001331394085841219247_" gradientUnits="userSpaceOnUse" x1="677.5165" y1="310.4643" x2="677.5165" y2="201.3788" gradientTransform="matrix(0.9602 -0.2793 0.2793 0.9602 2.0805 445.6391)">
		<stop  offset="0" style="stop-color:#372463"/>
		<stop  offset="1" style="stop-color:#0C0519"/>
	</linearGradient>
	
		<path style="clip-path:url(#SVGID_00000170255400858113310980000002505470867749135497_);fill:url(#SVGID_00000079484540343971878410000001331394085841219247_);" d="
		M776.578,471.062c-13.281,2.962-26.92,13.66-36.01,26.797c0.816-2.055,1.703-4.097,2.763-6.11
		c6.005-11.403,14.303-22.113,23.207-31.386c0.52-0.542-0.18-1.378-0.819-1.008c-12.702,7.362-21.998,17.581-28.355,30.867
		c-1.275,2.665-2.543,5.55-3.691,8.559c0.289-3.241,0.766-6.486,1.586-9.74c3.005-11.926,9.443-23.531,17.237-32.974
		c0.677-0.82-0.215-1.939-1.167-1.436c-7.997,4.22-14.381,11.093-18.884,19.256c1.844-6.855,4.223-13.584,6.894-20.078
		c0.23-0.558-0.5-1.269-0.944-0.689c-5.435,7.096-9.131,14.65-11.396,22.881c2.034-13.934,6.961-27.266,12.594-40.139
		c0.28-0.64-0.523-1.36-1.049-0.766c-11.076,12.5-16.382,28.134-17.883,44.612c-0.169,1.858-0.29,3.873-0.376,5.947
		c-0.169-0.449-0.339-0.889-0.508-1.334c-0.142-0.954-0.268-1.916-0.371-2.886c-1.665-15.633-0.857-32.112,1.372-47.642
		c0.137-0.953-1.085-1.237-1.429-0.358c-4.432,11.317-6.54,22.513-6.701,34.061c-4.645-9.653-10.16-18.785-16.987-27.25
		c-0.615-0.763-1.758-0.098-1.31,0.807c6.692,13.542,13.629,27.099,19.124,41.191c0.11,0.901,0.184,1.791,0.315,2.699
		c0.068,0.466,0.144,0.948,0.216,1.424c-0.943-1.366-1.864-2.686-2.73-3.921c-4.839-6.905-10.524-15.504-18.08-20.108
		c-0.27-2.048-0.522-4.1-0.746-6.158c-0.058-0.531-0.885-0.723-1-0.116c-0.315,1.659-0.53,3.319-0.69,4.978
		c-2.554-1.188-5.301-1.928-8.299-1.977c-0.79-0.013-0.873,0.968-0.337,1.352c2.977,2.128,5.759,4.672,8.384,7.469
		c0.153,6.13,1.275,12.186,3.183,18.03c-3.922-1.911-8.162-2.93-12.853-2.271c-0.775,0.109-1.001,1.175-0.165,1.419
		c6.123,1.786,11.391,5.014,16.223,8.959c1.398,3.014,2.985,5.951,4.752,8.781c0.295,0.473,0.638,1.008,1.013,1.581
		c-1.131-0.49-2.243-0.962-3.315-1.409c-12.133-5.053-25.435-8.844-38.645-7.078c-1.191,0.159-1.469,1.732-0.248,2.128
		c4.997,1.62,10.043,2.953,15.078,4.295c-3.933,0.667-7.726,2.196-11.175,4.896c-0.561,0.439-0.229,1.621,0.566,1.275
		c12.983-5.648,24.483-0.566,36.037,5.829c0.072,0.04,0.165,0.089,0.254,0.136c-9.175-2.531-18.426-3.461-28.074-1.692
		c-0.891,0.163-0.598,1.477,0.226,1.508c9.405,0.353,18.554,2.166,27.513,4.973c-8.774,0.399-17.283,3.311-24.307,8.775
		c-0.725,0.564-0.303,2.045,0.724,1.631c9.315-3.752,18.767-5.612,28.841-4.58c0.782,0.08,1.551,0.21,2.317,0.348
		c-0.374,0.051-0.744,0.102-1.098,0.153c-9.417,1.365-18.148,5.735-25.119,12.188c-0.698,0.646,0.235,1.574,0.982,1.21
		c8.905-4.342,18.083-7.351,28.006-8.188c4.734-0.399,9.854,0.679,14.529-0.055c0.189,0.038,0.377,0.081,0.565,0.116
		c0.14,0.026,0.242-0.069,0.267-0.183c0.366,0.082,0.731,0.174,1.1,0.239c0.067,0.088,0.155,0.171,0.218,0.26
		c-0.076,0.363,0.252,0.669,0.6,0.675c0.179,0.048,0.372-0.039,0.489-0.199c0.218-0.146,0.429-0.287,0.646-0.432
		c0.041,0.004,0.08,0.015,0.121,0.019c0.248,0.025,0.385-0.168,0.418-0.379c6.15-4.118,12.003-8.103,18.691-11.471
		c7.477-3.764,15.04-6.998,22.039-11.624c1.041-0.688,0.286-2.088-0.842-1.898c-8.217,1.382-15.671,4.626-22.917,8.558
		c1.629-1.158,3.192-2.257,4.614-3.29c7.658-5.565,15.697-10.55,23.346-16.125c0.859-0.626,0.32-2.041-0.776-1.75
		c-10.854,2.882-19.979,8.272-28.745,15.295c-1.319,1.056-2.814,2.224-4.365,3.477c3.07-5.2,6.329-10.289,10.46-14.959
		c7.884-8.913,17.562-15.703,26.326-23.648C779.133,472.391,777.845,470.779,776.578,471.062z M694.956,473.03
		c5.583,6.948,10.435,14.768,14.918,21.673c1.489,2.293,2.89,4.779,4.272,7.339c-2.262-2.151-4.53-4.173-6.667-6.043
		c-2.429-2.125-4.939-4.307-7.578-6.247C697.671,484.333,696.109,478.734,694.956,473.03z"/>
</g>
</svg>
